<?xml version="1.0" encoding="UTF-8" standalone="no"?>
<svg
   xmlns="http://www.w3.org/2000/svg"
   width="760"
   height="450"
   viewBox="0 0 760 450"
   version="1.1">
  <path
     d="m 539.18211,226.92554 h 74.18664 v 95.5521 h -24.72993 l -3.70763,-22.22232 c -9.39912,10.86414 -22.99902,26.91379 -55.39398,26.91379 -42.78043,0 -81.60504,-30.61648 -81.60504,-92.83665 0,-48.14657 26.70665,-93.82389 86.3038,-93.82389 h 0.49397 c 54.40443,0 75.91676,35.30873 77.89663,59.75094 h -37.0945 c 0,-6.91527 -12.61116,-29.13446 -38.82303,-29.13446 -26.46086,0 -50.94258,18.27029 -50.94258,63.69984 0,48.39512 26.45924,60.98675 51.68554,60.98675 8.15821,0 35.36122,-3.20946 43.02621,-39.01142 h -41.2961 z"
     style="fill:#236b19;fill-opacity:1" />
  <path
     d="M 671.71791,290.37836 H 760 v 32.09928 H 634.62576 V 145.20082 h 37.09215 z"
     style="fill:#236b19;fill-opacity:1" />
  <path
     style="fill:#236b19;fill-opacity:1"
     d="M 683.98887,350.2814 C 635.60475,377.65545 518.16534,415.24153 379.40682,396.41748 205.72906,372.83442 132.50334,311.98132 132.50334,224.56013 c 0,-87.42421 86.7367,-153.846343 246.90348,-170.98238 132.61397,-14.198053 250.6503,16.747047 300.92637,42.606102 h 1.50436 C 649.06365,70.019789 546.40319,0.87163182 375.9875,0.00762994 165.765,-1.066363 -1.0030188,111.42389 0.00454671,224.98813 -1.0030188,338.55135 165.765,451.04761 375.9875,449.99262 c 178.83076,-0.912 283.01356,-76.99719 310.15572,-99.71122 z" />
  <path
     style="fill:#236b19;fill-opacity:1;"
     d="m 288.20004,327.42313 q -1.40735,-14.8553 -15.01167,-99.29595 -2.97106,-18.92096 -13.13521,-77.40393 -4.37841,-25.17583 -5.62938,-27.20866 -1.25097,-2.1892 -3.44018,-3.2838 -4.3784,-2.1892 -20.48467,-1.72009 v -11.10238 l 41.28209,0.93823 53.00997,-0.93823 -0.62549,10.32053 -14.22981,0.93823 q -6.25486,0.62548 -8.44407,2.65831 -2.1892,1.87646 -2.1892,5.78575 0,3.2838 0.78186,12.97884 l 2.81469,21.57928 18.60821,119.937 36.59095,-66.30155 q 23.143,-41.75121 39.0929,-76.4657 5.473,-12.04061 5.473,-15.32442 0,-2.03283 -2.03283,-3.12743 -3.44017,-1.72008 -24.70671,-2.65831 l 1.0946,-10.32053 31.27432,0.78186 38.31104,-0.78186 -1.09461,11.10238 q -9.06955,-0.15637 -12.66609,1.0946 -2.81469,0.93823 -4.69115,3.28381 -2.34557,2.97106 -11.10238,18.76459 L 339.0208,280.98077 q -14.8553,26.58317 -20.32831,37.37281 -2.03283,4.06566 -4.06566,9.06955 z" />
</svg>
